<global>
amp_veltrack=0
ampeg_release=15.0

<group>
group_label=RR1
seq_length=2
seq_position=1

<region>
hivel=100
key=D4
lovel=76
offset=5637
sample=BigCym_Sticks_Hit_F_D4_RR1.opus

<region>
hivel=127
key=D4
lovel=101
offset=6244
sample=BigCym_Sticks_Hit_FF_D4_RR1.opus

<region>
hivel=75
key=D4
lovel=51
offset=5461
sample=BigCym_Sticks_Hit_MF_D4_RR1.opus

<region>
hivel=50
key=D4
lovel=26
offset=8385
sample=BigCym_Sticks_Hit_MP_D4_RR1.opus

<region>
hivel=25
key=D4
lovel=0
offset=12922
sample=BigCym_Sticks_Hit_P_D4_RR1.opus

<group>
group_label=RR2
seq_length=2
seq_position=2

<region>
hivel=100
key=D4
lovel=76
offset=5647
sample=BigCym_Sticks_Hit_F_D4_RR2.opus

<region>
hivel=127
key=D4
lovel=101
offset=5880
sample=BigCym_Sticks_Hit_FF_D4_RR2.opus

<region>
hivel=75
key=D4
lovel=51
offset=5440
sample=BigCym_Sticks_Hit_MF_D4_RR2.opus

<region>
hivel=50
key=D4
lovel=26
offset=5495
sample=BigCym_Sticks_Hit_MP_D4_RR2.opus

<region>
hivel=25
key=D4
lovel=0
offset=1512
sample=BigCym_Sticks_Hit_P_D4_RR2.opus

